<svg width="20" height="19" viewBox="0 0 20 19" fill="none" xmlns="http://www.w3.org/2000/svg">
<path d="M2.59961 4.6001H4.59961C5.13004 4.6001 5.63875 4.38938 6.01382 4.01431C6.3889 3.63924 6.59961 3.13053 6.59961 2.6001C6.59961 2.33488 6.70497 2.08053 6.8925 1.89299C7.08004 1.70545 7.33439 1.6001 7.59961 1.6001H9.59961L2.59961 4.6001ZM2.59961 4.6001C2.06918 4.6001 1.56047 4.81081 1.1854 5.18588C0.810323 5.56096 0.599609 6.06966 0.599609 6.6001V15.6001C0.599609 16.1305 0.810323 16.6392 1.1854 17.0143C1.56047 17.3894 2.06918 17.6001 2.59961 17.6001H16.5996C17.13 17.6001 17.6387 17.3894 18.0138 17.0143C18.3889 16.6392 18.5996 16.1305 18.5996 15.6001V8.6001M12.5996 3.6001H18.5996M15.5996 0.600098V6.6001M12.5996 10.6001C12.5996 12.257 11.2565 13.6001 9.59961 13.6001C7.94276 13.6001 6.59961 12.257 6.59961 10.6001C6.59961 8.94324 7.94276 7.6001 9.59961 7.6001C11.2565 7.6001 12.5996 8.94324 12.5996 10.6001Z" stroke="#607D8B" stroke-width="1.2" stroke-linecap="round" stroke-linejoin="round"/>
</svg>
