<svg width="18" height="18" viewBox="0 0 18 18" fill="none" xmlns="http://www.w3.org/2000/svg">
<path d="M17.051 0H13.1552C12.9027 0 12.6604 0.10033 12.4819 0.278919C12.3033 0.457508 12.2029 0.699726 12.2029 0.952289C12.2029 1.20485 12.3033 1.44707 12.4819 1.62566C12.6604 1.80425 12.9027 1.90458 13.1552 1.90458H14.752L12.138 4.51861C9.18634 2.23052 4.90927 2.44089 2.20217 5.14929C-0.734345 8.08623 -0.734345 12.8641 2.2039 15.7993C3.61742 17.2086 5.53203 18 7.52806 18C9.52409 18 11.4387 17.2086 12.8522 15.7993C15.5606 13.0905 15.771 8.81517 13.4829 5.8635L16.0987 3.2512V4.84802C16.0987 5.10058 16.199 5.3428 16.3776 5.52139C16.5562 5.69998 16.7984 5.80031 17.051 5.80031C17.3035 5.80031 17.5457 5.69998 17.7243 5.52139C17.9029 5.3428 18.0032 5.10058 18.0032 4.84802V0.952289C18.0032 0.827233 17.9786 0.703401 17.9308 0.587864C17.8829 0.472327 17.8128 0.367347 17.7243 0.278919C17.6359 0.190491 17.5309 0.120346 17.4154 0.0724888C17.2998 0.0246318 17.176 0 17.051 0ZM11.5069 14.454C10.4509 15.5078 9.01994 16.0997 7.52806 16.0997C6.03618 16.0997 4.60524 15.5078 3.54922 14.454C1.35506 12.2603 1.35506 8.69007 3.54922 6.49634C5.74339 4.30262 9.31317 4.30218 11.5069 6.49634C13.7006 8.6905 13.7011 12.2603 11.5069 14.454Z" fill="#607D8B"/>
</svg>
